<svg width="267" height="454" viewBox="0 0 267 454" fill="none" xmlns="http://www.w3.org/2000/svg">
<g clip-path="url(#clip0_21309_4137)">
<path d="M173.456 193.682C175.889 197.549 178.286 201.44 180.27 205.562C181.538 208.192 182.695 210.877 183.948 213.518C185.929 217.689 188.367 221.526 191.529 224.954C194.73 228.427 198 231.901 200.271 236.104C204.536 243.999 207.72 252.261 208.743 261.278C209.779 270.411 210.928 279.532 212.149 288.641C212.908 294.294 213.851 299.928 214.803 305.554C215.27 308.303 215.849 311.027 215.828 313.833C215.823 314.248 215.848 314.672 215.924 315.08C217.703 324.387 218.111 333.888 220.055 343.181C221.738 351.23 223.335 359.311 226.432 366.942C229.987 375.699 233.224 384.618 238.293 392.701C240.212 395.762 241.752 399.057 243.536 402.206C244.441 403.804 244.457 405.316 243.753 406.99C241.853 411.527 239.304 415.666 236.145 419.407C227.974 429.089 217.718 435.786 206.104 440.662C196.924 444.519 187.425 447.046 177.578 448.223C170.114 449.116 162.617 449.641 155.087 448.884C145.232 447.892 135.585 446.032 126.289 442.493C124.057 441.644 122.543 440.464 121.7 438.124C119.474 431.955 116.535 426.087 113.286 420.404C110.73 415.938 107.977 411.568 105.043 407.342C101.389 402.082 97.362 397.092 93.1337 392.263C89.2692 387.852 85.0329 383.823 80.8332 379.757C69.9939 369.27 60.0144 358.064 51.6241 345.485C49.2924 341.989 47.7443 338.097 45.7766 334.419C43.5457 330.249 41.4417 326.009 39.278 321.804C35.7065 314.861 31.6537 308.205 27.3701 301.686C23.2206 295.37 19.9726 288.611 17.4797 281.481C16.6993 279.248 15.8799 277.024 15.0956 274.791C12.7128 268.013 12.0865 260.949 11.7159 253.846C11.5846 251.347 11.4383 248.844 11.4108 246.343C11.3323 238.907 12.5086 231.621 14.3917 224.464C15.9984 218.364 18.3976 212.572 22.6364 207.77C26.6905 203.173 31.5783 200.29 38.0108 200.96C39.2783 201.091 40.4687 201.426 41.6173 201.95C41.782 202.551 42.3074 202.763 42.7737 203.067C46.5161 205.483 50.1134 208.149 53.2214 211.305C58.868 217.039 64.7205 222.6 69.7978 228.877C70.6685 229.954 71.5583 231.032 72.3128 232.191C74.4153 235.4 74.2855 236.377 71.5079 238.903C70.8956 239.459 70.1893 239.914 69.5054 240.382C66.9501 242.121 64.1227 243.256 61.144 244.021C60.3408 244.228 59.4886 244.286 58.8392 244.887C58.283 245.404 58.0575 246.045 58.3309 246.76C58.5941 247.452 59.1147 248.009 59.8905 247.877C61.6558 247.572 63.4596 247.462 65.1311 246.656C67.8973 245.317 70.4331 243.65 72.7903 241.684C73.7309 240.897 74.3903 239.728 75.7068 239.412C76.8895 240.077 77.4022 241.233 77.853 242.397C80.168 248.36 82.0773 254.43 82.3353 260.892C80.584 259.572 78.6766 259.084 76.5187 259.735C74.1576 260.448 72.4126 261.857 71.2851 264.075C69.0384 268.5 68.9668 272.771 72.0353 276.871C68.8558 276.728 66.0411 275.796 63.8947 273.276C63.3589 272.649 62.596 272.228 61.9959 271.651C59.184 268.95 56.5286 266.135 54.3421 262.852C52.477 260.052 51.0341 257.058 49.4459 254.121C47.7187 250.93 45.3348 248.73 41.554 247.965C39.0144 247.452 36.3653 246.775 34.2348 245.106C31.6046 243.046 29.0489 240.894 27.4041 237.873C27.0155 237.158 26.3939 236.553 25.793 235.988C25.3889 235.607 24.8124 235.416 24.2472 235.69C23.5121 236.047 23.3718 236.743 23.4765 237.453C23.5565 237.992 23.7953 238.509 23.9721 239.034C25.2798 242.901 28.1663 245.572 31.0848 248.156C32.849 249.719 34.8341 251.049 37.272 251.46C37.8084 251.549 38.3143 251.832 38.8235 252.058C39.3627 252.297 40.2754 251.923 40.4009 253.199C38.2632 254.363 36.0274 255.363 33.6016 255.999C30.8599 256.716 28.0957 256.697 25.3068 256.508C24.0597 256.424 22.7976 256.332 21.5562 256.413C20.704 256.471 19.9422 256.958 19.7902 257.922C19.6426 258.874 20.185 259.521 21.0052 259.88C22.3198 260.456 23.7605 260.448 25.126 260.346C30.4296 259.955 35.6227 259.088 40.2434 256.173C41.1844 255.578 42.1572 255.031 43.1225 254.48C44.0045 253.974 44.7698 254.222 45.2845 255.013C45.7397 255.705 46.055 256.492 46.4184 257.244C47.2652 258.996 47.9967 260.815 48.9707 262.494C51.4987 266.839 54.4001 270.906 58.2111 274.257C58.8834 274.849 58.6733 275.556 57.7681 275.734C51.9396 276.895 46.7686 279.497 41.9228 282.848C40.2063 284.032 38.493 285.228 36.7093 286.312C35.1447 287.263 33.7323 288.369 32.5347 289.745C32.148 290.188 32.0671 290.787 32.3749 291.304C32.6758 291.81 33.2154 291.976 33.8017 291.999C34.8287 292.039 35.6875 291.535 36.5638 291.129C40.1163 289.478 43.3141 287.258 46.4596 284.945C50.6322 281.878 55.3255 279.829 60.1701 278.084C61.3431 277.66 62.2676 277.745 63.2505 278.544C66.4378 281.128 70.1848 281.946 74.1963 281.848C77.2691 281.777 79.8784 280.695 81.9346 278.358C83.5754 276.492 85.2458 274.648 87.0572 272.623C88.2044 273.832 89.1565 275.029 90.3022 275.999C93.7137 278.889 97.4689 280.556 102.154 279.648C106.659 278.776 110.04 276.243 112.961 272.98C115.721 269.892 117.389 266.302 117.484 262.036C117.56 258.553 117.839 255.075 118.064 251.593C118.1 250.976 117.835 250.185 118.699 249.854C125.651 254.541 135.872 251.614 140.914 242.699C141.952 243.621 141.97 244.96 142.231 246.144C143.565 252.211 145.948 257.782 150.235 262.325C154.139 266.462 157.933 270.696 162.668 274.012C168.252 277.92 174.326 280.395 180.96 281.688C182.381 281.963 183.707 281.475 185.082 281.409C185.232 281.402 185.481 281.028 185.481 280.825C185.482 280.605 185.292 280.248 185.107 280.184C183.793 279.735 182.464 279.334 181.136 278.934C176.022 277.387 171.285 275.094 167.168 271.66C161.809 267.192 157.036 262.14 152.936 256.496C151.556 254.598 150.581 252.423 149.813 250.167C148.993 247.759 149.025 246.746 152.139 247.688C153.305 248.041 154.627 247.894 155.876 247.952C156.144 247.967 156.449 247.931 156.683 247.814C156.896 247.703 157.141 247.464 157.172 247.25C157.203 247.045 157.041 246.666 156.865 246.591C155.842 246.15 154.816 245.699 153.751 245.395C150.619 244.501 148.555 242.282 146.658 239.834C145.775 238.695 145.307 237.43 145.599 235.721C146.835 235.793 148.071 235.865 149.311 235.937C150.582 236.01 151.807 235.878 152.977 235.319C153.541 235.052 153.953 234.642 153.845 234.066C153.745 233.53 153.293 233.058 152.698 232.981C151.459 232.821 150.206 232.763 148.963 232.622C143.968 232.058 140.52 229.336 138.347 224.896C137.938 224.065 138.115 223.26 138.975 222.737C140.05 222.085 141.108 221.4 141.852 220.356C142.182 219.894 142.397 219.38 142.061 218.815C141.76 218.305 141.323 217.899 140.736 217.961C139.916 218.044 139.115 218.294 138.303 218.454C137.079 218.698 135.857 219.104 134.626 219.14C130.251 219.266 125.994 218.511 122.133 216.411C118.961 214.685 115.759 212.88 112.964 210.626C108.532 207.054 104.427 203.079 100.186 199.269C99.0506 198.245 97.7156 197.36 96.8455 196.141C94.3412 192.643 91.5862 189.296 89.6407 185.434C87.6226 181.434 85.9829 177.333 86.4703 172.648C86.8899 168.601 88.8345 165.938 92.691 164.675C92.288 165.858 91.8247 167.023 91.4936 168.227C90.2201 172.824 90.5174 177.289 92.7264 181.573C93.3026 182.695 93.8912 183.867 94.942 184.555C97.2505 186.069 99.432 187.787 102.082 188.78C106.442 190.413 110.941 190.982 115.554 191.051C117.38 191.08 118.749 190.394 119.92 189.067C122.659 185.958 124.344 182.415 124.896 178.269C125.286 175.327 124.833 172.748 122.708 170.587C123.529 170.662 124.389 170.608 125.167 170.834C132.192 172.864 139.212 174.922 146.218 177.028C148.989 177.862 151.787 178.675 154.441 179.805C157.893 181.279 160.917 183.488 163.833 185.86C167.042 188.469 169.87 191.551 173.451 193.693L173.456 193.682ZM121.953 401.128C126.495 400.896 130.679 399.209 134.539 397.1C138.66 394.848 142.613 392.187 146.024 388.818C148.302 386.567 150.708 384.423 153.209 382.423C156.351 379.907 159.426 377.225 163.024 375.378C168.099 372.774 173.332 370.502 178.888 369.068C182.121 368.234 185.344 367.356 188.564 366.471C189.22 366.29 189.858 366.011 190.464 365.697C190.638 365.607 190.753 365.218 190.728 364.986C190.703 364.753 190.511 364.423 190.316 364.35C188.97 363.841 187.62 363.944 186.227 364.259C183.382 364.897 180.481 365.313 177.659 366.029C170.494 367.85 163.474 370.029 157.193 374.143C152.877 376.971 148.841 380.135 144.906 383.467C142.256 385.715 139.522 387.89 136.658 389.853C132.502 392.699 128.034 394.9 122.941 395.638C121.755 395.811 120.479 396.029 119.415 396.828C118.025 397.874 117.95 399.111 119.23 400.281C120.039 401.021 120.961 401.093 121.961 401.125L121.953 401.128ZM144.321 412.497L144.323 412.466C144.602 412.482 144.89 412.557 145.154 412.507C149.365 411.675 153.72 411.298 157.416 408.76C157.988 408.367 158.542 407.895 159.177 407.663C162.355 406.506 165.089 404.535 167.702 402.534C173.892 397.804 180.091 393.097 186.732 389.008C192.065 385.724 197.419 382.482 203.181 379.965C204.643 379.327 206.4 379.149 207.434 377.679C205.661 376.599 204.113 377.935 202.464 378.158C201.643 378.268 200.809 378.404 200.033 378.675C193.185 381.064 186.61 384.034 180.307 387.666C173.659 391.497 167.869 396.55 161.391 400.626C157.6 403.016 153.771 405.13 149.397 406.252C147.252 406.801 145.008 407.016 142.996 408.076C141.779 408.716 139.982 409.181 140.372 410.787C140.71 412.176 142.499 412.326 143.896 412.468C144.034 412.484 144.176 412.485 144.314 412.493L144.321 412.497ZM127.034 282.286C127.149 281.024 126.981 280.219 126.445 279.523C126.02 278.971 125.553 278.417 124.773 278.43C123.969 278.444 123.495 279.013 123.276 279.673C122.804 281.122 122.261 282.532 122.082 284.09C121.495 289.238 122.333 294.365 122.215 299.503C122.207 299.906 122.41 300.313 122.478 300.721C123.961 309.238 126.092 317.52 130.107 325.281C132.351 329.617 135.007 333.678 137.572 337.798C138.734 339.665 140.435 341.202 141.961 342.821C142.413 343.301 143.092 343.59 143.709 343.883C143.862 343.958 144.181 343.742 144.385 343.604C144.465 343.55 144.498 343.314 144.45 343.211C144.168 342.591 143.925 341.935 143.535 341.386C141.027 337.888 138.865 334.187 136.901 330.362C135.759 328.139 134.476 325.977 133.476 323.689C130.466 316.794 128.284 309.663 127.326 302.156C126.799 298.012 126.279 293.887 126.675 289.708C126.922 287.105 126.067 284.445 127.034 282.283L127.034 282.286Z" fill="#B6DEDB"/>
<path d="M120.261 141.96C119.398 140.302 119.433 138.444 119.308 136.687C118.755 128.766 118.274 120.842 117.96 112.908C117.756 107.759 117.918 102.598 117.864 97.4432C117.799 91.0345 117.676 84.6263 117.595 78.2167C117.552 74.7349 117.528 71.2542 117.523 67.7708C117.507 56.4825 117.475 45.1971 117.505 33.9114C117.518 28.7413 117.964 23.6502 119.814 18.7099C121.687 13.7018 125.076 10.2389 129.727 7.92959C133.393 6.10897 137.238 5.98259 141.084 7.40182C141.847 7.68455 142.573 8.15729 143.211 8.67112C145.739 10.7095 147.758 13.1644 149.185 16.1038C151.466 20.7998 152.723 25.8092 153.265 30.95C154.127 39.112 154.622 47.3103 155.508 55.466C155.868 58.774 156.449 62.0602 156.659 65.394C156.942 69.9777 157.444 74.5511 157.642 79.1414C157.878 84.5836 158.753 89.9475 159.304 95.3503C159.898 101.175 160.254 107.008 160.421 112.862C160.529 116.751 160.936 120.646 161.496 124.5C162.099 128.656 162.175 132.839 162.171 136.995C162.165 142.592 162.726 148.126 163.265 153.663C163.706 158.233 164.394 162.782 165.105 167.322C165.756 171.458 166.932 175.471 168.378 179.407C169.045 181.218 170.018 182.966 169.815 185.011C168.36 184.673 167.547 183.468 166.56 182.531C161.447 177.662 155.658 173.985 148.778 172.155C146.774 171.623 144.689 171.271 142.792 170.488C139.675 169.2 136.381 168.716 133.148 167.975C130.142 167.289 130.116 167.414 129.753 164.34C129.655 163.516 129.483 162.698 129.443 161.87C129.423 161.426 129.772 161.162 130.243 161.12C130.973 161.051 131.598 161.33 132.212 161.677C134.425 162.924 136.847 163.665 139.322 163.901C143.753 164.328 148.216 164.456 152.665 164.692C153.503 164.737 154.354 164.709 155.071 164.19C155.276 164.04 155.475 163.783 155.524 163.543C155.619 163.091 155.348 162.66 154.954 162.572C151.979 161.884 149.005 161.181 145.926 161.105C139.421 160.946 133.902 158.107 128.577 154.703C127.214 153.832 126.329 152.742 125.767 151.237C124.495 147.826 122.567 144.777 120.261 141.967L120.261 141.96ZM133.035 109.328C130.394 109.175 127.754 109.002 125.111 108.879C124.383 108.844 123.7 109.17 123.429 109.873C123.144 110.61 123.604 111.221 124.117 111.708C125.594 113.121 127.466 113.618 129.415 113.866C136.7 114.789 143.836 114.07 150.825 111.831C152.438 111.313 153.853 110.431 155.136 109.36C155.556 109.011 155.723 108.39 155.464 107.825C155.201 107.253 154.646 107.082 154.077 107.168C153.116 107.312 152.157 107.491 151.221 107.744C145.251 109.342 139.205 109.956 133.043 109.329L133.035 109.328ZM150.16 61.3755C150.602 61.3628 151.158 61.3759 151.707 61.3194C151.974 61.2926 152.246 61.17 152.473 61.0256C152.7 60.8812 153.04 60.6549 153.039 60.4703C153.034 60.0932 152.955 59.5465 152.696 59.3662C149.331 56.9984 145.513 55.8269 141.489 55.2047C136.864 54.4899 132.345 55.3305 127.86 56.2309C126.116 56.5793 124.466 57.4137 122.788 58.0659C122.383 58.223 122.183 58.6189 122.238 59.0719C122.3 59.5792 122.711 59.726 123.123 59.7731C123.672 59.8319 124.265 59.9394 124.776 59.8C126.974 59.1858 129.194 59.3878 131.409 59.5358C137.637 59.9556 143.919 59.8555 150.16 61.3793L150.16 61.3755Z" fill="#B6DEDB"/>
<path d="M41.7622 198.717C41.3019 190.713 43.5496 183.628 48.9051 177.588C49.3654 177.069 49.7455 176.476 50.1986 175.949C54.5114 170.932 59.8982 168.185 66.5913 168.14C69.2192 168.124 71.8786 167.502 74.4073 168.729C75.8286 169.915 77.6658 170.222 79.266 171.037C80.3588 171.597 80.9476 172.369 80.844 173.69C80.7452 174.926 80.7005 176.157 80.9533 177.425C82.2206 183.704 85.033 189.234 88.9406 194.228C90.5708 196.311 92.4064 198.232 94.1534 200.221C94.892 201.06 95.683 201.856 95.6919 203.09C95.7081 206.248 97.1146 209.009 98.1771 211.873C100.482 218.074 104.462 223.334 107.909 228.863C111.162 234.08 113.113 239.557 113.582 245.639C113.793 248.408 114.236 251.16 114.386 253.929C114.48 255.695 114.797 257.574 113.556 259.159C113.254 258.872 112.932 258.6 112.646 258.299C111.108 256.675 109.294 256.428 107.309 257.281C105.777 257.938 104.209 258.546 102.781 259.39C96.9621 262.835 94.7798 267.871 96.0874 274.579C94.5031 274.283 93.3607 273.321 92.2662 272.196C88.6349 268.463 86.7432 263.874 85.7894 258.875C84.8269 253.829 84.2403 248.724 82.395 243.865C80.153 237.968 77.4085 232.391 73.2323 227.593C68.2028 221.814 63.0307 216.178 57.6238 210.746C54.2674 207.372 50.5902 204.428 46.7811 201.639C45.234 200.503 43.7748 199.111 41.7658 198.721L41.7622 198.717Z" fill="#B6DEDB"/>
<path d="M113.553 259.155C114.794 257.57 114.48 255.691 114.383 253.925C114.233 251.156 113.79 248.404 113.579 245.635C113.11 239.553 111.159 234.076 107.906 228.859C104.459 223.33 100.479 218.066 98.174 211.869C97.1074 209.009 95.705 206.244 95.6888 203.086C95.684 201.848 94.8889 201.056 94.1503 200.217C92.4032 198.228 90.5677 196.307 88.9374 194.225C85.0299 189.23 82.2174 183.7 80.9502 177.421C80.6936 176.153 80.7421 174.922 80.8408 173.686C80.9445 172.365 80.3557 171.593 79.2629 171.033C77.6665 170.218 75.8255 169.911 74.4042 168.725C75.2065 167.676 74.2011 166.472 74.686 165.397C76.5228 165.315 78.2253 165.891 79.9635 166.38C81.5282 166.817 82.9292 166.633 83.8934 164.978C84.6655 163.655 85.8207 162.545 87.2205 161.919C90.7733 160.331 94.4223 159.136 98.405 159.136C104.3 159.141 109.911 160.463 115.415 162.443C118.278 163.471 121.178 164.393 124.069 165.33C125.144 165.677 125.576 165.237 125.333 164C124.396 159.252 123.563 154.475 121.455 150.042C120.808 148.682 120.011 147.329 120.202 145.71C120.22 144.462 120.243 143.21 120.262 141.961C122.568 144.771 124.492 147.82 125.768 151.231C126.33 152.736 127.219 153.826 128.578 154.697C133.903 158.101 139.418 160.944 145.926 161.099C149.01 161.175 151.98 161.878 154.955 162.566C155.349 162.658 155.62 163.089 155.525 163.537C155.472 163.776 155.277 164.034 155.072 164.184C154.355 164.699 153.504 164.731 152.666 164.686C148.217 164.45 143.757 164.322 139.323 163.895C136.852 163.659 134.426 162.918 132.213 161.671C131.599 161.324 130.974 161.049 130.244 161.114C129.769 161.16 129.42 161.42 129.444 161.863C129.484 162.689 129.656 163.51 129.754 164.334C130.117 167.404 130.143 167.279 133.149 167.969C136.382 168.71 139.676 169.19 142.792 170.482C144.694 171.269 146.775 171.617 148.779 172.149C155.655 173.979 161.448 177.656 166.561 182.525C167.548 183.462 168.361 184.667 169.816 185.005L169.789 185.011C169.538 185.831 169.761 186.421 170.608 186.708L170.576 186.668C170.512 187.172 170.771 187.475 171.197 187.673C172.247 189.564 172.952 191.581 173.448 193.678C169.863 191.536 167.038 188.454 163.83 185.845C160.91 183.476 157.886 181.263 154.438 179.79C151.784 178.659 148.986 177.847 146.215 177.013C139.209 174.906 132.193 172.849 125.164 170.818C124.385 170.592 123.526 170.646 122.712 170.576C121.383 169.58 119.917 168.833 118.402 168.138C114.852 166.509 111.117 165.496 107.357 164.501C104.365 163.708 101.348 163.413 98.2869 163.347C96.3191 163.306 94.4091 163.591 92.6914 164.663C88.8349 165.927 86.8902 168.593 86.4708 172.637C85.9831 177.325 87.623 181.423 89.6411 185.423C91.5866 189.285 94.3417 192.632 96.846 196.13C97.7163 197.345 99.0511 198.234 100.186 199.257C104.424 203.067 108.532 207.043 112.964 210.615C115.76 212.869 118.962 214.673 122.134 216.399C125.99 218.5 130.248 219.255 134.626 219.128C135.857 219.092 137.079 218.687 138.303 218.443C139.115 218.278 139.917 218.033 140.736 217.95C141.323 217.888 141.764 218.294 142.061 218.803C142.393 219.372 142.183 219.883 141.853 220.344C141.108 221.389 140.051 222.07 138.976 222.726C138.112 223.252 137.938 224.054 138.347 224.885C140.516 229.324 143.969 232.043 148.963 232.61C150.207 232.752 151.459 232.809 152.698 232.97C153.293 233.047 153.746 233.519 153.845 234.055C153.954 234.63 153.542 235.041 152.977 235.308C151.804 235.863 150.579 235.999 149.312 235.925C148.076 235.853 146.839 235.782 145.599 235.709C145.308 237.419 145.776 238.68 146.658 239.823C148.555 242.271 150.619 244.494 153.751 245.383C154.816 245.687 155.846 246.139 156.865 246.579C157.042 246.655 157.204 247.029 157.173 247.239C157.141 247.453 156.897 247.692 156.683 247.803C156.449 247.924 156.144 247.952 155.876 247.94C154.624 247.883 153.305 248.029 152.139 247.677C149.025 246.739 148.993 247.752 149.813 250.156C150.581 252.411 151.561 254.586 152.937 256.485C157.037 262.132 161.809 267.181 167.168 271.648C171.289 275.083 176.026 277.376 181.136 278.923C182.465 279.323 183.797 279.723 185.108 280.173C185.296 280.237 185.483 280.59 185.482 280.813C185.481 281.017 185.237 281.391 185.083 281.397C183.708 281.464 182.381 281.952 180.961 281.677C174.326 280.384 168.248 277.908 162.668 274.001C157.934 270.685 154.139 266.451 150.236 262.314C145.945 257.766 143.565 252.199 142.232 246.132C141.97 244.948 141.948 243.609 140.915 242.688C135.869 251.598 125.647 254.529 118.699 249.843C117.835 250.169 118.104 250.965 118.064 251.582C117.839 255.06 117.56 258.542 117.484 262.025C117.39 266.29 115.722 269.884 112.961 272.968C110.041 276.236 106.66 278.765 102.154 279.637C97.4694 280.545 93.7141 278.877 90.3026 275.988C89.1569 275.018 88.2051 273.817 87.0576 272.612C85.2462 274.637 83.5797 276.481 81.935 278.346C79.8788 280.683 77.2698 281.762 74.1967 281.837C70.1855 281.931 66.4382 281.117 63.2509 278.533C62.2678 277.737 61.3435 277.649 60.1705 278.073C55.3259 279.817 50.6326 281.867 46.46 284.934C43.3143 287.25 40.1167 289.467 36.5642 291.118C35.688 291.524 34.8293 292.024 33.8022 291.987C33.2158 291.965 32.6763 291.799 32.3754 291.293C32.0675 290.775 32.1522 290.177 32.5351 289.734C33.7325 288.362 35.1451 287.252 36.7098 286.301C38.4932 285.221 40.2065 284.025 41.9232 282.837C46.7688 279.489 51.9401 276.883 57.7685 275.723C58.6739 275.541 58.8876 274.838 58.2116 274.245C54.4006 270.894 51.4992 266.827 48.9711 262.482C47.9972 260.803 47.2656 258.985 46.4189 257.232C46.0554 256.481 45.7402 255.693 45.2849 255.002C44.7664 254.21 44.0009 253.966 43.1229 254.469C42.1574 255.024 41.1846 255.571 40.2438 256.162C35.6231 259.077 30.4262 259.943 25.1264 260.335C23.7609 260.436 22.32 260.449 21.0056 259.869C20.1854 259.509 19.6431 258.863 19.7906 257.91C19.9386 256.95 20.7006 256.46 21.5566 256.402C22.7981 256.32 24.0601 256.413 25.3073 256.497C28.0961 256.686 30.8603 256.705 33.602 255.987C36.024 255.352 38.26 254.347 40.4014 253.188C40.2758 251.912 39.3631 252.286 38.8239 252.047C38.3147 251.821 37.8086 251.542 37.2725 251.449C34.8345 251.038 32.8456 249.708 31.0852 248.144C28.1668 245.56 25.284 242.89 23.9726 239.023C23.7957 238.498 23.557 237.98 23.4769 237.441C23.3722 236.732 23.5125 236.036 24.2476 235.679C24.8128 235.404 25.3929 235.6 25.7935 235.977C26.3943 236.542 27.0157 237.151 27.4045 237.862C29.0493 240.883 31.605 243.035 34.2352 245.094C36.366 246.76 39.0151 247.437 41.5544 247.953C45.3352 248.719 47.7192 250.918 49.4463 254.11C51.0348 257.043 52.4774 260.041 54.3426 262.841C56.5291 266.124 59.1845 268.939 61.9963 271.64C62.5965 272.217 63.3591 272.641 63.8951 273.265C66.0453 275.785 68.8563 276.717 72.0321 276.856C74.063 278.719 76.1567 277.983 78.1639 276.885C80.6591 275.519 82.3927 273.313 83.936 271.012C84.8781 269.606 85.0504 267.963 84.5749 266.232C84.0552 264.337 83.1008 262.652 82.3319 260.881C82.0703 254.414 80.1646 248.349 77.8497 242.386C77.3988 241.222 76.8861 240.065 75.7034 239.401C74.3869 239.716 73.7311 240.889 72.7869 241.672C70.4297 243.638 67.8978 245.306 65.1277 246.644C63.4562 247.45 61.6524 247.561 59.8871 247.866C59.1073 248.001 58.5907 247.44 58.3275 246.749C58.0541 246.033 58.2796 245.392 58.8358 244.875C59.4852 244.275 60.3336 244.216 61.1406 244.009C64.1193 243.245 66.9467 242.11 69.502 240.37C70.1898 239.903 70.8962 239.444 71.5045 238.891C74.2821 236.366 74.4119 235.389 72.3094 232.18C71.5511 231.021 70.6649 229.946 69.7944 228.865C64.7171 222.588 58.8684 217.027 53.218 211.294C50.11 208.137 46.5127 205.472 42.7703 203.055C42.3038 202.755 41.7784 202.544 41.6139 201.938C41.6611 200.861 41.7084 199.783 41.7595 198.706C43.7688 199.092 45.2239 200.487 46.7748 201.623C50.5839 204.413 54.2573 207.356 57.6176 210.731C63.0244 216.162 68.2004 221.799 73.226 227.577C77.402 232.379 80.1468 237.952 82.3887 243.849C84.2378 248.708 84.8242 253.817 85.7831 258.859C86.7371 263.855 88.6288 268.444 92.2599 272.18C93.3544 273.305 94.4968 274.267 96.0811 274.563C97.4514 275.965 99.0342 276.288 100.991 275.99C105.18 275.353 108.413 273.308 111.195 270.182C114.129 266.885 115.294 263.362 113.55 259.143L113.553 259.155ZM103.005 208.84C102.866 208.713 102.731 208.59 102.593 208.462C102.707 208.611 102.818 208.756 102.932 208.905C102.739 209.913 103.015 210.778 103.56 211.652C106.564 216.452 109.545 221.265 112.499 226.092C115.413 230.86 117.488 235.936 117.839 241.589C117.915 242.796 118.353 243.714 119.339 244.386C119.699 244.803 120.018 245.268 120.427 245.634C123.27 248.182 128.573 248.871 131.633 246.965C133.386 245.872 135.052 244.565 136.221 242.83C138.428 239.545 139.244 236.151 137.164 232.359C136.025 230.278 134.85 228.299 133.124 226.672C132.932 226.008 132.756 225.34 132.544 224.686C132.208 223.659 131.507 223.042 130.402 223.077C127.551 223.169 125.036 222.043 122.433 221.095C117.032 219.128 112.323 216.102 108.086 212.276C106.55 210.892 105.012 209.526 103.013 208.841L103.005 208.84Z" fill="#206AD1"/>
<path d="M120.201 145.71C120.015 147.329 120.808 148.678 121.455 150.042C123.563 154.475 124.395 159.252 125.333 164C125.576 165.237 125.143 165.677 124.069 165.33C121.173 164.397 118.274 163.475 115.415 162.443C109.911 160.463 104.3 159.141 98.4046 159.136C94.4219 159.136 90.773 160.331 87.2202 161.919C85.8165 162.545 84.6613 163.654 83.893 164.978C82.9289 166.633 81.5276 166.821 79.9632 166.38C78.225 165.891 76.5225 165.315 74.6857 165.397C73.459 155.975 76.7638 148.213 83.3413 141.633C86.2568 138.72 89.7564 136.789 93.5729 135.354C102.321 132.072 111.484 135.788 115.422 140.58C116.48 141.868 117.578 143.128 118.62 144.43C119.061 144.982 119.475 145.525 120.198 145.706L120.201 145.71Z" fill="#B6DEDB"/>
<path d="M170.612 186.711C169.764 186.424 169.541 185.834 169.792 185.015C170.592 185.326 170.63 186.005 170.612 186.711Z" fill="#B6DEDB"/>
<path d="M171.204 187.676C170.774 187.478 170.519 187.175 170.583 186.671C171.093 186.82 171.256 187.179 171.204 187.676Z" fill="#B6DEDB"/>
<path d="M92.6948 164.667C94.4123 163.598 96.3225 163.31 98.2904 163.351C101.351 163.417 104.372 163.712 107.36 164.505C111.12 165.5 114.856 166.513 118.406 168.142C119.921 168.837 121.387 169.584 122.715 170.58C124.837 172.741 125.286 175.316 124.9 178.261C124.351 182.408 122.663 185.951 119.924 189.06C118.752 190.391 117.384 191.072 115.557 191.043C110.941 190.975 106.446 190.406 102.086 188.772C99.4358 187.78 97.2582 186.062 94.9459 184.547C93.8953 183.856 93.3067 182.684 92.7303 181.566C90.5213 177.282 90.224 172.816 91.4975 168.219C91.8286 167.016 92.2919 165.851 92.6948 164.667Z" fill="#F7F780"/>
<path d="M121.953 401.127C120.948 401.092 120.027 401.023 119.221 400.284C117.941 399.114 118.013 397.876 119.406 396.831C120.471 396.032 121.747 395.81 122.932 395.64C128.029 394.903 132.493 392.702 136.649 389.856C139.513 387.893 142.248 385.718 144.898 383.469C148.828 380.138 152.864 376.974 157.184 374.146C163.465 370.032 170.486 367.853 177.651 366.032C180.473 365.315 183.374 364.9 186.218 364.261C187.612 363.946 188.965 363.848 190.307 364.353C190.506 364.426 190.694 364.76 190.72 364.988C190.744 365.22 190.63 365.61 190.455 365.7C189.853 366.014 189.211 366.292 188.555 366.473C185.335 367.363 182.112 368.236 178.88 369.071C173.323 370.505 168.091 372.777 163.016 375.38C159.417 377.228 156.346 379.906 153.2 382.426C150.699 384.429 148.293 386.569 146.015 388.82C142.609 392.19 138.656 394.851 134.53 397.103C130.671 399.208 126.487 400.895 121.945 401.131L121.953 401.127Z" fill="#206AD1"/>
<path d="M144.321 412.493C144.183 412.485 144.042 412.48 143.904 412.468C142.507 412.326 140.718 412.175 140.38 410.787C139.989 409.184 141.787 408.716 143.003 408.076C145.016 407.016 147.26 406.801 149.404 406.252C153.775 405.13 157.604 403.015 161.399 400.626C167.873 396.546 173.663 391.493 180.315 387.666C186.617 384.038 193.189 381.063 200.041 378.675C200.817 378.404 201.65 378.272 202.471 378.158C204.12 377.935 205.665 376.599 207.442 377.679C206.408 379.145 204.65 379.323 203.188 379.965C197.427 382.482 192.069 385.723 186.739 389.008C180.099 393.097 173.899 397.804 167.71 402.534C165.093 404.535 162.363 406.506 159.185 407.663C158.549 407.895 157.996 408.367 157.424 408.76C153.727 411.298 149.377 411.675 145.161 412.507C144.897 412.561 144.606 412.482 144.33 412.466L144.329 412.497L144.321 412.493Z" fill="#206AD1"/>
<path d="M127.033 282.281C126.066 284.447 126.922 287.103 126.674 289.707C126.278 293.886 126.799 298.01 127.326 302.155C128.284 309.661 130.461 316.792 133.475 323.688C134.475 325.976 135.759 328.138 136.901 330.361C138.864 334.185 141.026 337.886 143.534 341.384C143.925 341.93 144.167 342.59 144.45 343.21C144.497 343.316 144.465 343.549 144.385 343.602C144.177 343.74 143.857 343.952 143.708 343.882C143.095 343.585 142.417 343.299 141.961 342.819C140.434 341.2 138.73 339.659 137.571 337.797C135.007 333.676 132.351 329.616 130.106 325.28C126.091 317.519 123.965 309.233 122.478 300.72C122.406 300.308 122.203 299.904 122.215 299.501C122.333 294.364 121.494 289.24 122.081 284.088C122.26 282.534 122.799 281.12 123.275 279.671C123.49 279.011 123.969 278.443 124.772 278.428C125.553 278.416 126.02 278.97 126.445 279.521C126.981 280.213 127.145 281.023 127.033 282.285L127.033 282.281Z" fill="#206AD1"/>
<path d="M82.3356 260.888C83.1043 262.663 84.0589 264.345 84.5786 266.24C85.0541 267.97 84.8818 269.614 83.9397 271.02C82.3964 273.321 80.6587 275.531 78.1676 276.893C76.1604 277.991 74.0667 278.727 72.0358 276.863C68.9709 272.768 69.0428 268.493 71.2892 264.072C72.4167 261.853 74.1617 260.444 76.5228 259.732C78.6769 259.08 80.5845 259.564 82.3395 260.889L82.3356 260.888Z" fill="#F7F780"/>
<path d="M133.036 109.329C139.198 109.953 145.244 109.343 151.214 107.745C152.15 107.496 153.113 107.317 154.07 107.169C154.639 107.083 155.19 107.253 155.457 107.826C155.716 108.391 155.549 109.012 155.129 109.36C153.846 110.431 152.435 111.314 150.818 111.832C143.829 114.07 136.697 114.79 129.408 113.866C127.459 113.619 125.587 113.121 124.11 111.709C123.597 111.222 123.137 110.611 123.422 109.874C123.693 109.171 124.376 108.845 125.104 108.88C127.747 108.999 130.387 109.175 133.028 109.329L133.036 109.329Z" fill="#206AD1"/>
<path d="M150.16 61.377C143.919 59.8532 137.638 59.9533 131.41 59.5335C129.194 59.3856 126.975 59.1835 124.777 59.7977C124.265 59.941 123.673 59.8296 123.123 59.7708C122.715 59.7278 122.301 59.5769 122.238 59.0696C122.184 58.6166 122.38 58.2205 122.788 58.0636C124.466 57.4153 126.116 56.5808 127.861 56.2286C132.349 55.3285 136.869 54.4878 141.49 55.2024C145.513 55.8246 149.332 56.9961 152.697 59.3639C152.955 59.5442 153.038 60.0911 153.04 60.468C153.04 60.6564 152.701 60.8827 152.473 61.0233C152.246 61.1677 151.97 61.29 151.707 61.3171C151.159 61.3736 150.603 61.3605 150.16 61.3732L150.16 61.377Z" fill="#206AD1"/>
<path d="M113.553 259.155C115.297 263.377 114.132 266.897 111.198 270.194C108.416 273.323 105.183 275.369 100.994 276.002C99.0373 276.299 97.4507 275.976 96.0842 274.575C94.7807 267.863 96.959 262.83 102.778 259.386C104.202 258.542 105.774 257.934 107.306 257.277C109.295 256.428 111.105 256.671 112.643 258.295C112.929 258.596 113.247 258.868 113.553 259.155Z" fill="#F7F780"/>
<path d="M133.124 226.676C134.853 228.303 136.025 230.282 137.164 232.363C139.244 236.155 138.424 239.548 136.221 242.834C135.052 244.573 133.386 245.88 131.633 246.969C128.572 248.875 123.27 248.186 120.426 245.637C120.017 245.272 119.699 244.807 119.339 244.386C119.172 242.043 118.97 239.705 118.853 237.361C118.724 234.816 119.765 232.697 121.791 231.273C125.191 228.88 128.723 226.663 133.124 226.676Z" fill="#F7F780"/>
<path d="M133.123 226.676C128.723 226.659 125.191 228.879 121.791 231.273C119.765 232.7 118.724 234.816 118.852 237.361C118.973 239.705 119.172 242.043 119.339 244.386C118.352 243.717 117.914 242.796 117.838 241.592C117.487 235.94 115.412 230.863 112.498 226.096C109.545 221.265 106.564 216.451 103.559 211.656C103.014 210.786 102.734 209.92 102.931 208.909L103.004 208.844C105.008 209.533 106.541 210.895 108.078 212.28C112.314 216.105 117.024 219.131 122.425 221.099C125.027 222.046 127.543 223.172 130.394 223.08C131.498 223.045 132.2 223.662 132.536 224.689C132.751 225.343 132.923 226.015 133.115 226.676L133.123 226.676Z" fill="#B6DEDB"/>
<path d="M102.937 208.909C102.822 208.759 102.711 208.614 102.597 208.465C102.736 208.592 102.871 208.716 103.01 208.844L102.937 208.909Z" fill="#B6DEDB"/>
</g>
<defs>
<clipPath id="clip0_21309_4137">
<rect width="241.806" height="440.669" fill="white" transform="translate(25.5732) rotate(3.32691)"/>
</clipPath>
</defs>
</svg>
