<svg class="  " display="block" width="100%" viewBox="0 0 49 64" fill="none" xmlns="http://www.w3.org/2000/svg"> <path d="M48.6868 0.392411C48.6868 0.392411 40.7561 -1.93144 33.1215 4.73108C29.7499 7.67344 28.6518 10.4588 28.4674 12.6388C24.3055 11.7149 19.7593 11.9306 15.3447 13.5072C3.60879 17.6988 -2.7483 29.9207 1.14484 40.8062C3.49356 47.3741 9.03722 51.9549 15.643 53.6352L15.5997 59.3301C15.5997 59.3301 9.40157 58.7489 9.52591 61.902C9.62019 64.2932 14.2817 63.9842 15.5997 63.9897C18.53 64.0019 19.9515 63.57 20.6059 63.2328C20.9389 63.0612 21.1466 62.7162 21.1466 62.3417V61.3987C21.1379 60.9799 21.1748 56.5352 21.1939 54.3443C21.9882 54.3493 22.7889 54.3138 23.5923 54.2369C23.611 56.3864 23.6497 60.9731 23.6406 61.3987V62.3417C23.6406 62.7162 23.8478 63.0612 24.1812 63.2328C24.8356 63.57 26.2571 64.0019 29.1874 63.9897C30.5055 63.9842 35.1674 64.2928 35.2612 61.902C35.3851 58.7489 29.1874 59.3301 29.1874 59.3301L29.1396 53.034C29.2407 52.9994 29.3418 52.9639 29.4429 52.9279C41.1783 48.7367 47.5354 36.5149 43.6423 25.6293C42.3424 21.9943 40.0639 18.9677 37.1682 16.7049C40.1103 16.1205 43.3002 14.9049 45.5934 12.454C49.9424 7.80588 48.6863 0.392411 48.6863 0.392411H48.6868ZM18.9299 22.8185C17.9507 24.5134 16.097 25.2757 14.7899 24.5216C13.4823 23.7674 13.2164 21.7817 14.1956 20.0873C15.1748 18.3924 17.0284 17.6301 18.3356 18.3843C19.6431 19.1384 19.9091 21.1241 18.9299 22.8185ZM28.2137 22.8185C27.2345 24.5134 25.3808 25.2757 24.0732 24.5216C22.7661 23.7674 22.4997 21.7817 23.4789 20.0873C24.4581 18.3924 26.3117 17.6301 27.6193 18.3843C28.9269 19.1384 29.1929 21.1241 28.2137 22.8185Z" fill="currentcolor"></path> </svg>